<svg width="22" height="22" viewBox="0 0 22 22" fill="none" xmlns="http://www.w3.org/2000/svg">
<path d="M20.4615 14.0798C20.4654 10.1764 20.4693 6.27289 20.4615 2.36941C20.4615 1.011 19.447 0.00390348 18.0904 0C12.8584 0 7.62253 0 2.38666 0C1.16612 0 0.26432 0.761178 0.0310965 1.97516C0.0272094 1.99858 0.0116612 2.022 0 2.04932V17.2221C0.101064 17.511 0.15937 17.8233 0.307078 18.0809C0.750203 18.8655 1.44599 19.2598 2.3439 19.2637C3.56832 19.2715 4.79664 19.2637 6.02106 19.2637C7.97237 19.2637 9.92367 19.2637 11.875 19.2637C12.7107 20.8875 14.3938 22 16.3373 22C19.1088 22 21.3594 19.736 21.3594 16.9567C21.3594 15.8871 21.0251 14.8957 20.4537 14.0759L20.4615 14.0798ZM16.3412 21.6135C14.6192 21.6135 13.1188 20.6689 12.3181 19.2676C11.9527 18.6313 11.7389 17.8974 11.7117 17.1167C11.7117 17.066 11.7039 17.0114 11.7039 16.9606C11.7039 14.7825 13.1966 12.9556 15.2101 12.4521C15.5716 12.3623 15.9486 12.3077 16.3373 12.3077C18.1332 12.3077 19.688 13.3343 20.4576 14.8332C20.7841 15.4695 20.9746 16.1916 20.9746 16.9606C20.9746 19.533 18.8989 21.6135 16.3412 21.6135ZM13.2432 3.45848C14.4715 3.46629 15.4744 4.48119 15.4666 5.71469C15.4627 6.95209 14.456 7.95138 13.2199 7.94748C11.9916 7.94357 10.9848 6.92477 10.9926 5.69517C11.0004 4.46167 12.0149 3.45067 13.2393 3.45848H13.2432ZM10.3823 17.1167C8.09675 17.1167 5.81505 17.1167 3.52945 17.1167C3.3662 17.1167 3.19517 17.105 3.0358 17.0621C2.73649 16.9762 2.5849 16.7108 2.65098 16.4102C2.67819 16.2814 2.72872 16.1526 2.78702 16.0355C4.03477 13.549 5.28641 11.0625 6.53415 8.57594L6.54193 8.55642C6.87622 7.90844 7.3621 7.8616 7.80911 8.44322C8.5632 9.4269 9.3134 10.4184 10.0675 11.406C10.5573 12.05 11.0431 12.6941 11.5407 13.3304C11.6573 13.4787 11.8011 13.6231 11.9605 13.7207C12.1004 13.8066 12.2481 13.8456 12.3997 13.8417C11.7234 14.7005 11.3152 15.7857 11.3152 16.9645C11.3152 17.0192 11.323 17.0699 11.323 17.1206C11.0082 17.1206 10.6972 17.1206 10.3823 17.1206V17.1167Z" fill="#CD1944"/>
<path d="M16.5149 15.3788L14 17.9044H15.4693V18.6773V20.8281V21.7571H17.7549V20.8281V18.6734V17.9044H18.2602H19.2242L16.6121 15.2812L16.5149 15.3788Z" fill="#CD1944"/>
</svg>
